<?xml version="1.0" standalone="no"?>
<!DOCTYPE svg PUBLIC "-//W3C//DTD SVG 20010904//EN"
 "http://www.w3.org/TR/2001/REC-SVG-20010904/DTD/svg10.dtd">
<svg version="1.0" xmlns="http://www.w3.org/2000/svg"
 width="1200.000000pt" height="800.000000pt" viewBox="0 0 1200.000000 800.000000"
 preserveAspectRatio="xMidYMid meet">

<g transform="translate(0.000000,800.000000) scale(0.100000,-0.100000)"
fill="#000000" stroke="none">
<path d="M445 5708 c-3 -7 -4 -591 -3 -1298 l3 -1285 645 -3 c429 -2 678 1
744 8 288 33 533 146 722 336 87 87 187 226 235 327 l29 62 0 -367 0 -368
1100 0 1100 0 0 430 0 430 -620 0 -620 0 0 35 0 35 620 0 620 0 0 370 0 370
-620 0 -620 0 0 35 0 35 620 0 620 0 0 430 0 430 -1100 0 -1100 0 0 -362 0
-363 -46 84 c-179 334 -444 531 -824 613 -90 20 -135 21 -798 25 -576 4 -703
2 -707 -9z m1350 -1007 c87 -39 145 -148 145 -270 0 -132 -50 -229 -142 -275
-50 -25 -59 -26 -220 -26 l-168 0 0 295 0 295 173 0 c145 0 178 -3 212 -19z"/>
<path d="M5082 4423 l3 -1298 480 0 480 0 3 433 2 432 270 0 270 0 2 -432 3
-433 480 0 480 0 5 842 5 843 263 -432 262 -431 0 -413 0 -414 480 0 480 0 0
417 0 416 373 613 c204 337 375 613 380 614 4 0 7 -463 7 -1030 l0 -1030 955
0 955 0 0 470 0 470 -475 0 -475 0 0 830 0 830 -887 -2 -887 -3 -193 -335
c-106 -184 -193 -340 -193 -347 0 -9 106 -201 172 -311 l21 -33 -32 3 c-29 3
-44 25 -328 513 l-298 510 -777 3 -778 2 0 -435 0 -435 -270 0 -270 0 0 435 0
435 -485 0 -485 0 2 -1297z"/>
<path d="M631 2824 c-91 -46 -138 -135 -128 -245 6 -67 25 -106 73 -153 81
-78 244 -89 321 -21 36 31 21 31 -41 0 -179 -91 -381 73 -326 264 39 136 206
204 334 136 55 -29 63 -31 45 -8 -48 57 -189 71 -278 27z"/>
<path d="M1331 2836 c-43 -15 -107 -69 -126 -106 -27 -53 -37 -119 -25 -177
47 -224 365 -264 473 -59 28 53 30 164 4 217 -24 49 -74 98 -122 120 -47 22
-152 24 -204 5z m194 -25 c138 -62 175 -240 74 -355 -52 -59 -108 -80 -194
-73 -78 6 -131 36 -172 98 -32 48 -43 144 -23 204 16 49 66 104 115 126 53 24
147 24 200 0z"/>
<path d="M1990 2605 c0 -153 4 -245 10 -245 6 0 11 86 12 223 l3 222 173 -222
c96 -123 178 -223 183 -223 5 0 9 103 9 245 0 157 -4 245 -10 245 -6 0 -10
-80 -10 -221 0 -121 -4 -218 -9 -215 -4 3 -84 102 -176 221 -92 118 -172 215
-176 215 -5 0 -9 -110 -9 -245z"/>
<path d="M2774 2836 c-42 -19 -74 -62 -74 -102 0 -75 39 -107 178 -144 63 -17
88 -29 107 -52 40 -47 29 -103 -27 -139 -28 -17 -45 -20 -110 -16 -63 3 -84 9
-117 30 -42 28 -56 23 -22 -7 51 -47 175 -60 248 -27 73 33 95 113 47 170 -20
24 -47 37 -127 61 -76 23 -109 39 -129 61 -37 39 -37 79 1 121 25 29 35 32 95
36 48 3 80 -1 112 -13 59 -23 70 -11 13 15 -52 23 -148 26 -195 6z"/>
<path d="M3250 2840 c0 -6 37 -10 90 -10 l90 0 0 -235 c0 -150 4 -235 10 -235
6 0 10 85 10 235 l0 235 90 0 c53 0 90 4 90 10 0 6 -70 10 -190 10 -120 0
-190 -4 -190 -10z"/>
<path d="M3900 2605 c0 -211 2 -245 15 -245 12 0 15 16 15 85 l0 85 99 0 100
0 56 -80 c31 -44 61 -82 66 -86 26 -16 14 9 -41 87 -58 81 -59 84 -37 92 96
35 125 175 53 251 -41 44 -88 56 -218 56 l-108 0 0 -245z m293 192 c83 -63 67
-186 -30 -236 -12 -6 -69 -11 -127 -11 l-106 0 0 141 0 141 113 -3 c106 -4
116 -6 150 -32z"/>
<path d="M4580 2688 c0 -179 8 -222 47 -269 35 -41 79 -59 145 -59 68 0 130
30 160 78 21 35 23 50 26 225 3 129 0 187 -7 187 -8 0 -11 -56 -11 -173 0
-159 -2 -176 -22 -217 -29 -55 -74 -80 -146 -80 -84 0 -141 40 -161 115 -6 22
-11 111 -11 198 0 98 -4 157 -10 157 -6 0 -10 -61 -10 -162z"/>
<path d="M5405 2826 c-93 -43 -140 -128 -133 -240 8 -126 94 -213 221 -223 69
-6 123 7 170 39 15 11 24 24 21 29 -4 6 -13 4 -23 -5 -30 -27 -89 -46 -145
-46 -153 0 -258 144 -215 297 16 57 79 125 133 143 59 19 165 9 204 -19 18
-13 36 -21 39 -18 10 11 -10 29 -51 48 -60 27 -157 25 -221 -5z"/>
<path d="M5910 2840 c0 -6 37 -10 90 -10 l90 0 0 -235 c0 -150 4 -235 10 -235
6 0 10 85 10 235 l0 235 90 0 c53 0 90 4 90 10 0 6 -70 10 -190 10 -120 0
-190 -4 -190 -10z"/>
<path d="M6641 2824 c-60 -30 -105 -85 -122 -148 -14 -51 -6 -143 15 -184 91
-176 370 -175 452 2 28 59 32 157 11 209 -55 129 -223 187 -356 121z m247 -27
c64 -42 95 -97 100 -173 7 -104 -35 -180 -122 -220 -93 -43 -202 -26 -269 42
-48 48 -61 83 -62 159 0 92 32 151 108 196 47 27 59 30 128 27 63 -3 82 -8
117 -31z"/>
<path d="M7320 2605 c0 -211 2 -245 15 -245 12 0 15 16 15 85 l0 85 99 0 100
0 56 -80 c31 -44 61 -82 66 -86 26 -16 14 9 -41 87 -58 81 -59 84 -37 92 96
35 125 175 53 251 -41 44 -88 56 -218 56 l-108 0 0 -245z m293 192 c83 -63 67
-186 -30 -236 -12 -6 -69 -11 -127 -11 l-106 0 0 141 0 141 113 -3 c106 -4
116 -6 150 -32z"/>
<path d="M8034 2831 c-46 -28 -64 -59 -64 -109 0 -64 36 -94 146 -123 140 -37
181 -79 150 -153 -11 -26 -26 -41 -50 -51 -69 -29 -188 -13 -237 31 -11 10
-19 12 -23 5 -4 -6 5 -18 19 -27 107 -70 269 -54 309 31 40 84 -3 139 -136
175 -88 23 -142 50 -152 76 -16 42 -6 82 29 113 32 28 42 31 103 31 47 0 79
-6 105 -19 27 -14 37 -15 37 -6 0 41 -179 61 -236 26z"/>
<path d="M9045 2826 c-93 -43 -140 -128 -133 -240 8 -126 94 -213 221 -223 69
-6 123 7 170 39 15 11 24 24 21 29 -4 6 -13 4 -23 -5 -30 -27 -89 -46 -145
-46 -153 0 -258 144 -215 297 16 57 79 125 133 143 59 19 165 9 204 -19 18
-13 36 -21 39 -18 10 11 -10 29 -51 48 -60 27 -157 25 -221 -5z"/>
<path d="M9741 2836 c-43 -15 -107 -69 -126 -106 -27 -53 -37 -119 -25 -177
47 -224 365 -264 473 -59 28 53 30 164 4 217 -24 49 -74 98 -122 120 -47 22
-152 24 -204 5z m194 -25 c138 -62 175 -240 74 -355 -52 -59 -108 -80 -194
-73 -78 6 -131 36 -172 98 -32 48 -43 144 -23 204 16 49 66 104 115 126 53 24
147 24 200 0z"/>
<path d="M10400 2605 c0 -157 4 -245 10 -245 6 0 10 35 10 85 l0 85 103 0 102
-1 59 -84 c32 -47 65 -85 72 -85 8 0 -14 39 -48 87 -35 47 -58 88 -53 90 6 2
24 12 41 22 73 44 86 172 25 235 -43 44 -88 56 -215 56 l-106 0 0 -245z m265
205 c22 -11 48 -33 58 -49 23 -38 22 -108 -2 -147 -30 -50 -74 -64 -195 -64
l-106 0 0 140 0 140 102 0 c81 0 110 -4 143 -20z"/>
<path d="M11080 2605 c0 -157 4 -245 10 -245 6 0 10 35 10 85 l0 85 108 0 c92
0 114 3 152 23 60 30 82 73 77 150 -3 48 -8 62 -36 91 -43 44 -88 56 -215 56
l-106 0 0 -245z m265 205 c22 -11 48 -33 58 -49 23 -38 22 -108 -2 -147 -30
-50 -74 -64 -195 -64 l-106 0 0 140 0 140 102 0 c81 0 110 -4 143 -20z"/>
</g>
</svg>
